HIERARCHY
ROOT SimulationBone
{
	OFFSET 0.000000 0.000000 0.000000
	CHANNELS 6 Xposition Yposition Zposition Zrotation Yrotation Xrotation 
	JOINT Hips
	{
		OFFSET 0.000000 0.000000 0.000000
		CHANNELS 6 Xposition Yposition Zposition Zrotation Yrotation Xrotation 
		JOINT LeftUpLeg
		{
			OFFSET 0.103459 1.857831 10.548505
			CHANNELS 3 Zrotation Yrotation Xrotation
			JOINT LeftLeg
			{
				OFFSET 43.500004 -0.000023 -0.000004
				CHANNELS 3 Zrotation Yrotation Xrotation
				JOINT LeftFoot
				{
					OFFSET 42.372204 0.000019 -0.000006
					CHANNELS 3 Zrotation Yrotation Xrotation
					JOINT LeftToe
					{
						OFFSET 17.300005 0.000001 -0.000002
						CHANNELS 3 Zrotation Yrotation Xrotation
						End Site
						{
							OFFSET 0.000000 0.000000 0.000000
						}
					}
				}
			}
		}
		JOINT RightUpLeg
		{
			OFFSET 0.103461 1.857828 -10.548505
			CHANNELS 3 Zrotation Yrotation Xrotation
			JOINT RightLeg
			{
				OFFSET 43.500046 -0.000019 0.000006
				CHANNELS 3 Zrotation Yrotation Xrotation
				JOINT RightFoot
				{
					OFFSET 42.372261 -0.000015 0.000011
					CHANNELS 3 Zrotation Yrotation Xrotation
					JOINT RightToe
					{
						OFFSET 17.299999 -0.000003 0.000002
						CHANNELS 3 Zrotation Yrotation Xrotation
						End Site
						{
							OFFSET 0.000000 0.000000 0.000000
						}
					}
				}
			}
		}
		JOINT Spine
		{
			OFFSET 6.901964 -2.603731 0.000000
			CHANNELS 3 Zrotation Yrotation Xrotation
			JOINT Spine1
			{
				OFFSET 12.588102 -0.000003 0.000000
				CHANNELS 3 Zrotation Yrotation Xrotation
				JOINT Spine2
				{
					OFFSET 12.343204 0.000002 0.000000
					CHANNELS 3 Zrotation Yrotation Xrotation
					JOINT Neck
					{
						OFFSET 25.832891 -0.000013 0.000001
						CHANNELS 3 Zrotation Yrotation Xrotation
						JOINT Head
						{
							OFFSET 11.766613 0.000015 -0.000000
							CHANNELS 3 Zrotation Yrotation Xrotation
							End Site
							{
								OFFSET 0.000000 0.000000 0.000000
							}
						}
					}
					JOINT LeftShoulder
					{
						OFFSET 19.745911 -1.480375 6.000106
						CHANNELS 3 Zrotation Yrotation Xrotation
						JOINT LeftArm
						{
							OFFSET 11.284125 -0.000012 -0.000024
							CHANNELS 3 Zrotation Yrotation Xrotation
							JOINT LeftForeArm
							{
								OFFSET 33.000050 0.000007 0.000027
								CHANNELS 3 Zrotation Yrotation Xrotation
								JOINT LeftHand
								{
									OFFSET 25.200005 0.000018 0.000002
									CHANNELS 3 Zrotation Yrotation Xrotation
									End Site
									{
										OFFSET 0.000000 0.000000 0.000000
									}
								}
							}
						}
					}
					JOINT RightShoulder
					{
						OFFSET 19.746092 -1.480375 -6.000074
						CHANNELS 3 Zrotation Yrotation Xrotation
						JOINT RightArm
						{
							OFFSET 11.284139 -0.000017 -0.000020
							CHANNELS 3 Zrotation Yrotation Xrotation
							JOINT RightForeArm
							{
								OFFSET 33.000099 0.000021 0.000012
								CHANNELS 3 Zrotation Yrotation Xrotation
								JOINT RightHand
								{
									OFFSET 25.199780 0.000137 0.000427
									CHANNELS 3 Zrotation Yrotation Xrotation
									End Site
									{
										OFFSET 0.000000 0.000000 0.000000
									}
								}
							}
						}
					}
				}
			}
		}
	}
}
MOTION
Frames: 10
Frame Time: 0.016667
-262.392451 0.000000 85.268889 0.000000 68.776204 0.000000 -1.356525 87.796562 -1.104698 90.286661 1.663144 -178.866476 -166.718156 6.924605 169.846560 -15.856513 -3.008573 -2.767433 93.069557 2.784471 6.424652 21.454551 0.003076 -0.000001 154.729780 -11.942209 174.355345 -20.091790 3.887810 11.372896 77.139753 -7.000556 4.962954 21.454558 -0.003111 -0.000017 7.454906 1.954620 -2.506359 4.813527 4.010891 -4.932815 4.495855 3.981204 -4.956894 -6.840222 7.412966 0.747709 -16.941278 -3.580886 4.603171 178.415210 -78.160507 0.168632 -6.296366 63.023479 41.640438 -36.741714 -18.554562 1.606282 13.847552 -11.178151 1.020016 157.508764 77.569135 -21.502043 18.750625 -60.034021 -41.884084 -35.848179 15.954265 -1.443664 12.709489 2.123096 -24.268910 
-262.348198 0.000000 84.074602 0.000000 69.845951 0.000000 -1.367643 87.697468 -0.999977 90.076813 1.395905 -179.185761 -166.174197 7.036320 170.537834 -15.836149 -3.273519 -2.682938 92.455970 2.802089 6.638812 21.454553 0.003091 -0.000001 155.676537 -11.615062 173.457465 -20.160691 4.162264 11.289976 77.436390 -7.282890 3.693096 21.454556 -0.003107 -0.000017 7.300606 1.987098 -2.616169 4.499486 4.073425 -5.156955 4.181935 4.042387 -5.181408 -6.858420 7.582833 0.501972 -16.637937 -3.946326 4.536313 177.775160 -78.260188 0.818546 -4.157057 63.299545 44.237801 -35.445470 -18.008805 1.538895 14.020216 -10.006262 1.653992 160.117385 77.773363 -18.837430 19.178625 -59.587987 -41.687790 -36.192206 15.950568 -1.451654 12.571361 2.258590 -24.546732 
-262.277357 0.000000 82.921751 0.000000 70.877061 0.000000 -1.377006 87.874870 -0.873128 90.008256 1.582043 -179.340016 -165.305891 6.715508 170.424353 -15.210749 -3.126285 -2.131159 91.271264 2.500014 6.660707 21.454553 0.003095 -0.000001 157.440942 -11.717001 172.863618 -17.900835 4.275232 11.693144 75.504428 -8.480494 0.133949 21.454557 -0.003105 -0.000017 7.181413 2.104447 -2.686426 4.253383 4.305134 -5.298100 3.935807 4.273242 -5.323948 -6.856997 7.768510 0.116667 -16.349398 -4.483615 4.394742 176.865809 -78.570809 1.737137 -2.318051 63.636570 46.849430 -34.501832 -17.556339 1.488840 14.101533 -8.640813 2.423464 162.292669 77.822904 -16.621496 19.724696 -59.135926 -41.389535 -36.596648 16.021266 -1.465935 12.549658 2.498274 -24.555362 
-262.181333 0.000000 81.808726 0.000000 71.868165 0.000000 -1.373833 88.175020 -0.753831 89.997733 2.030239 -179.490603 -164.405869 6.164562 169.867005 -14.524532 -2.775616 -1.380714 89.844191 2.056701 6.576501 21.454551 0.003092 -0.000001 159.386506 -12.086066 172.427305 -14.910519 4.259542 12.360528 72.886763 -10.193881 -4.032729 21.454557 -0.003105 -0.000018 7.086738 2.277166 -2.702385 4.055839 4.646506 -5.328449 3.738107 4.614425 -5.356358 -6.906946 7.855409 -0.337467 -16.102257 -5.012553 4.150811 176.025903 -78.858629 2.584675 -0.765964 63.887585 49.298348 -33.823440 -17.191673 1.450442 14.076359 -7.132993 3.287053 163.823830 77.790997 -15.064499 20.256909 -58.655655 -40.970242 -36.937539 16.095123 -1.479241 12.567660 2.879465 -24.199235 
-262.061532 0.000000 80.733920 0.000000 72.818108 0.000000 -1.345263 88.444168 -0.671022 89.969252 2.545670 -179.798719 -163.767132 5.573902 169.235682 -14.325389 -2.414881 -0.706977 88.503288 1.652826 6.462639 21.454551 0.003087 0.000000 160.868358 -12.565904 172.014981 -12.795689 4.181884 13.065462 71.023106 -11.752439 -7.170164 21.454558 -0.003106 -0.000018 7.006268 2.475728 -2.649157 3.888586 5.037918 -5.219540 3.570587 5.006486 -5.249822 -7.076984 7.727889 -0.789223 -15.924134 -5.353089 3.779028 175.688899 -78.893931 2.926727 0.464932 63.909060 51.361272 -33.323969 -16.909001 1.420830 13.926839 -5.532618 4.202425 164.563572 77.750565 -14.313221 20.647692 -58.124293 -40.415492 -37.090525 16.101037 -1.483151 12.552651 3.439397 -23.383086 
-261.919359 0.000000 79.695726 0.000000 73.725937 0.000000 -1.278247 88.574507 -0.646451 89.896783 2.969715 179.626423 -163.580601 5.086597 168.799019 -15.006973 -2.160044 -0.309345 87.460636 1.413471 6.329435 21.454551 0.003082 0.000002 161.468400 -13.010748 171.673244 -12.687058 4.133070 13.556087 70.821153 -12.440133 -8.250832 21.454557 -0.003106 -0.000018 6.938842 2.673926 -2.522146 3.751365 5.427073 -4.962808 3.433024 5.397181 -4.995463 -7.396628 7.334072 -1.184243 -15.843118 -5.407913 3.285150 176.093258 -78.553850 2.524366 1.385966 63.653103 52.842003 -32.940678 -16.702781 1.399126 13.660611 -3.957085 5.102815 164.534477 77.744797 -14.343134 20.723676 -57.525229 -39.709672 -36.920728 16.010912 -1.472278 12.465746 4.153671 -22.094465 
-261.756222 0.000000 78.692534 0.000000 74.590897 0.000000 -1.165495 88.641998 -0.675574 89.937082 3.302212 178.888569 -163.598098 4.715309 168.383943 -16.320293 -1.875132 -0.051257 86.470173 1.223122 5.970283 21.454553 0.003081 0.000004 161.691178 -13.310591 172.094744 -13.829058 4.090515 13.441251 71.617592 -12.295909 -8.318612 21.454557 -0.003104 -0.000017 6.919164 2.858716 -2.358044 3.713042 5.790540 -4.630080 3.394328 5.762643 -4.664962 -7.746902 6.880625 -1.543264 -15.878798 -5.409264 2.794321 176.654005 -78.139033 1.964136 2.314214 63.441575 53.771383 -32.702579 -16.569090 1.385510 13.391318 -2.800947 5.830761 164.320813 77.711196 -14.562275 20.116639 -56.868857 -38.820680 -36.251385 15.968485 -1.454204 12.374553 4.742926 -20.649248 
-261.573525 0.000000 77.722738 0.000000 75.412410 0.000000 -1.004676 88.743941 -0.742883 90.229346 3.575705 178.162476 -163.550038 4.416434 167.822036 -17.935785 -1.441959 0.255743 85.257772 0.924801 5.210441 21.454553 0.003084 0.000003 162.123874 -13.389022 173.762746 -15.169117 3.993712 12.519785 72.566912 -11.636579 -8.577841 21.454557 -0.003100 -0.000016 6.972057 3.019474 -2.205897 3.821371 6.109147 -4.318064 3.502304 6.083118 -4.354903 -7.992784 6.579929 -1.900835 -16.018927 -5.582437 2.417303 176.827740 -77.980021 1.791164 3.588884 63.573237 54.344063 -32.638115 -16.503688 1.379960 13.229258 -2.425659 6.186847 164.417565 77.587103 -14.469497 18.589518 -56.188578 -37.718605 -34.986442 16.102040 -1.434521 12.361720 4.950367 -19.427400 
-261.372674 0.000000 76.784728 0.000000 76.190064 0.000000 -0.805354 88.879227 -0.815472 90.661486 3.759130 177.687342 -163.534755 4.027806 167.425231 -19.857923 -1.056284 0.684722 83.886081 0.472264 4.191142 21.454553 0.003087 0.000001 162.770826 -13.264494 175.707955 -16.348915 3.920819 11.497502 73.472474 -10.945548 -8.957004 21.454558 -0.003099 -0.000015 7.047894 3.143309 -2.123720 3.973823 6.356751 -4.145657 3.654504 6.331752 -4.184016 -8.072531 6.404469 -2.254887 -16.148488 -5.794195 2.090498 176.607792 -78.090518 2.012461 5.173951 63.906117 55.028244 -32.681655 -16.499449 1.380586 13.219634 -2.765705 5.861750 164.412611 77.411221 -14.482660 16.563365 -55.611132 -36.327361 -33.398695 16.306614 -1.410353 12.540085 4.878421 -18.741044 
-261.155075 0.000000 75.876897 0.000000 76.923598 0.000000 -0.581999 89.026395 -0.860679 91.085545 3.819337 177.652637 -163.755965 3.374353 167.405500 -22.217264 -0.872347 1.349950 82.458565 -0.209632 3.000523 21.454550 0.003086 -0.000001 163.511409 -12.981849 176.895490 -17.219915 3.974840 11.098378 74.314305 -10.637104 -9.151192 21.454559 -0.003107 -0.000016 7.090354 3.222590 -2.151355 4.054815 6.517633 -4.196269 3.735407 6.492332 -4.235608 -7.968497 6.278500 -2.601599 -16.150727 -5.874729 1.722837 176.072854 -78.402374 2.549231 6.903915 64.205424 56.192154 -32.780821 -16.546747 1.385845 13.369350 -3.579412 4.704740 163.933288 77.234410 -14.979211 14.501101 -55.251949 -34.560123 -31.812323 16.462014 -1.385150 12.985242 4.672928 -18.815567 
